<?xml version="1.0"?>

<!DOCTYPE svg PUBLIC '-//W3C//DTD SVG 1.0//EN' 'http://www.w3.org/TR/2001/REC-SVG-20010904/DTD/svg10.dtd'>
<svg fill-opacity="1" xmlns:xlink="http://www.w3.org/1999/xlink" color-rendering="auto" color-interpolation="auto" text-rendering="auto" stroke="black" stroke-linecap="square" stroke-miterlimit="10" shape-rendering="auto" stroke-opacity="1" fill="black" stroke-dasharray="none" font-weight="normal" stroke-width="1" xmlns="http://www.w3.org/2000/svg" font-family="&apos;Dialog&apos;" font-style="normal" stroke-linejoin="miter" font-size="12" stroke-dashoffset="0" image-rendering="auto">
  <!--Unicode Character 'FOOTPRINTS' (U+1F463)-->
  <defs id="genericDefs" />
  <g>
    <g>
      <path d="M272.5312 219.9375 Q272.5312 229.7812 266.2031 229.7812 Q256.7812 229.7812 256.7812 222.3281 Q256.7812 219.6562 258.8125 216.1406 Q260.8594 212.625 263.3906 212.625 Q264.5156 212.625 266.5469 213.125 Q268.5938 213.6094 269.4375 213.75 Q272.5312 216.4219 272.5312 219.9375 ZM262.125 202.7812 Q262.125 205.1719 260.5781 208.8281 Q258.75 213.0469 256.7812 213.0469 Q252.7031 213.0469 251.1562 212.0625 Q250.7344 211.7812 249.4688 209.8125 Q248.4844 208.2656 247.6406 208.2656 Q247.3594 208.2656 246.7188 208.4844 Q246.0938 208.6875 245.8125 208.6875 Q240.1875 208.6875 236.8125 204.75 Q236.1094 207.4219 233.7188 212.625 Q227.6719 221.9062 222.3281 221.9062 Q217.125 221.9062 213.0469 218.8125 Q208.9688 215.7188 208.9688 210.6562 Q208.9688 199.9688 220.9219 190.6875 Q223.1719 189 223.4531 189 Q228.5156 189 232.1719 190.9688 Q234.1406 191.9531 235.9688 197.2969 Q237.7969 195.1875 239.7656 192.9375 Q241.7344 190.6875 244.5469 190.6875 Q252.5625 190.6875 252.7031 199.125 Q254.8125 197.7188 255.2344 197.7188 Q262.125 197.7188 262.125 202.7812 ZM281.8125 273.375 Q281.8125 281.5312 280.6875 285.3281 Q277.875 294.75 270.7031 310.2188 Q262.5469 327.9375 260.0156 334.9688 Q255.9375 346.5 253.8281 357.3281 Q252.7031 368.4375 249.1875 390.2344 Q247.3594 398.3906 241.5938 406.8281 Q234.7031 416.9531 227.8125 417.7969 Q226.125 417.9375 223.875 417.9375 Q210.2344 417.9375 204.6094 412.5938 Q198 406.2656 198 397.4062 Q198 378.7031 202.5 369.4219 Q205.875 362.5312 212.9062 354.2344 Q218.8125 347.0625 224.7188 340.0312 Q224.8594 339.8906 228.375 333.4219 Q229.3594 331.875 231.1875 328.6406 Q238.7812 313.1719 238.7812 299.3906 Q238.7812 286.5938 235.2656 283.2188 Q232.0312 281.9531 226.2656 279.7031 Q214.4531 275.0625 209.5312 265.2188 Q205.0312 256.2188 205.0312 247.0781 Q205.0312 243.8438 208.4062 236.9531 Q216.1406 221.0625 235.2656 221.0625 Q254.6719 221.0625 265.7812 242.4375 Q268.3125 232.0312 272.8125 232.0312 Q280.9688 232.0312 280.9688 239.0625 Q280.9688 248.625 271.6875 249.3281 Q278.2969 258.4688 279.1406 260.2969 Q281.8125 265.5 281.8125 273.375 ZM84.375 169.4531 Q84.375 174.5156 80.1562 177.6094 Q75.9375 180.7031 70.7344 180.7031 Q64.8281 180.7031 59.4844 171.2812 Q58.7812 170.1562 56.8125 163.9688 Q55.4062 164.9531 53.8594 165.9375 Q51.3281 167.4844 47.25 167.4844 Q46.125 167.4844 45.5625 166.6406 Q44.5781 167.4844 42.1875 170.8594 Q41.3438 171 39.375 171.4219 Q37.4062 171.8438 36.2812 171.8438 Q34.4531 171.8438 32.7656 167.625 Q31.2188 163.8281 31.2188 161.5781 Q31.2188 156.5156 37.6875 156.5156 Q38.3906 156.5156 40.6406 157.9219 Q41.2031 149.4844 48.6562 149.4844 Q52.7344 149.4844 56.9531 156.5156 Q57.2344 155.3906 57.7969 153.1406 Q59.4844 147.7969 69.6094 147.7969 Q72.2812 147.7969 76.6406 152.2969 Q84.375 160.1719 84.375 169.4531 ZM36.5625 181.125 Q36.5625 188.5781 27.1406 188.5781 Q20.8125 188.5781 20.8125 178.7344 Q20.8125 171.4219 29.8125 171.4219 Q32.625 171.4219 34.5938 174.7969 Q36.5625 178.1719 36.5625 181.125 ZM95.3438 353.8125 Q95.3438 376.7344 69.6094 376.7344 Q56.5312 376.7344 46.8281 356.9062 Q44.1562 351.2812 42.1875 337.0781 Q40.9219 326.5312 39.5156 315.9844 Q37.6875 305.5781 33.3281 293.625 Q25.1719 277.5938 12.5156 244.125 Q11.5312 240.4688 11.5312 230.9062 Q11.5312 222.1875 21.6562 208.125 Q20.3906 208.125 17.8594 207.7031 Q12.375 206.2969 12.375 199.125 Q12.375 190.6875 20.25 190.6875 Q26.2969 190.6875 27.5625 201.2344 Q40.2188 179.7188 57.7969 179.7188 Q73.2656 179.7188 81.5625 189.4219 Q83.3906 191.5312 85.8438 197.4375 Q88.3125 203.3438 88.3125 205.875 Q88.3125 211.6406 85.2188 219.7969 Q81.9844 228.375 78.0469 231.75 Q71.8594 236.9531 65.8125 238.9219 Q63.4219 239.3438 58.9219 241.3125 Q54.5625 244.8281 54.5625 254.8125 Q54.5625 270 63 289.125 Q65.3906 294.4688 70.875 300.6562 Q75.5156 305.8594 80.1562 311.0625 Q81.7031 313.5938 84.9375 318.5156 Q91.5469 328.6406 93.5156 335.5312 Q95.3438 341.8594 95.3438 353.8125 Z" stroke="none" />
    </g>
  </g>
</svg>
