<?xml version="1.0" encoding="UTF-8" standalone="no"?>
<svg
   fill-opacity="1"
   color-rendering="auto"
   color-interpolation="auto"
   text-rendering="auto"
   stroke="black"
   stroke-linecap="square"
   stroke-miterlimit="10"
   shape-rendering="auto"
   stroke-opacity="1"
   fill="black"
   stroke-dasharray="none"
   font-weight="normal"
   stroke-width="1"
   font-family="'Dialog'"
   font-style="normal"
   stroke-linejoin="miter"
   font-size="12"
   stroke-dashoffset="0"
   image-rendering="auto"
   version="1.1"
   id="svg9"
   sodipodi:docname="paw_prints.svg"
   inkscape:version="1.2 (dc2aedaf03, 2022-05-15)"
   xmlns:inkscape="http://www.inkscape.org/namespaces/inkscape"
   xmlns:sodipodi="http://sodipodi.sourceforge.net/DTD/sodipodi-0.dtd"
   xmlns="http://www.w3.org/2000/svg"
   xmlns:svg="http://www.w3.org/2000/svg">
  <sodipodi:namedview
     id="namedview11"
     pagecolor="#ffffff"
     bordercolor="#000000"
     borderopacity="0.25"
     inkscape:showpageshadow="2"
     inkscape:pageopacity="0.0"
     inkscape:pagecheckerboard="0"
     inkscape:deskcolor="#d1d1d1"
     showgrid="false"
     inkscape:zoom="1.5733333"
     inkscape:cx="124.25847"
     inkscape:cy="143.32627"
     inkscape:window-width="1368"
     inkscape:window-height="850"
     inkscape:window-x="-6"
     inkscape:window-y="-6"
     inkscape:window-maximized="1"
     inkscape:current-layer="g7" />
  <!--Unicode Character 'PAW PRINTS' (U+1F43E)-->
  <defs
     id="genericDefs" />
  <g
     id="g7">
    <g
       id="g5"
       transform="rotate(90,141.43085,150.50671)">
      <path
         d="m 234.9844,129.6875 q 0,8.5781 -5.0625,14.7656 -5.4844,6.75 -13.7813,6.75 -3.9375,0 -11.5312,-4.2187 -10.2656,-5.7656 -11.5313,-6.1875 -4.6406,-1.8281 -14.3437,-3.6563 -9.7032,-1.8281 -14.3438,-3.6562 -18.8437,-7.3125 -18.8437,-25.875 0,-10.8282 9.7031,-15.3282 7.7344,-3.2343 15.4688,-6.6093 8.7187,-3.9375 14.2031,-8.7188 2.3906,-2.3906 4.7812,-4.5 2.3907,-2.1093 6.3281,-2.1093 18.2813,0 22.7813,14.4843 0.8437,2.8125 0.8437,11.1094 0,9.1406 7.6563,17.5781 7.6719,8.4375 7.6719,16.1719 z"
         id="path29"
         inkscape:label="rm" />
      <path
         id="path25"
         inkscape:label="rt1"
         d="m 172.125,56 q 0,8.0156 -5.2031,13.2969 -5.2031,5.2656 -13.0781,5.2656 -11.9532,0 -11.9532,-16.0313 0,-8.1562 3.9375,-13.7812 4.3594,-6.3281 12.2344,-6.3281 6.6094,0 10.5469,5.7656 Q 172.125,49.25 172.125,56 Z m 42.0469,-22.3594 q 0,8.2969 -5.7657,15.8906 -6.1874,8.0157 -14.3437,8.0157 -6.6094,0 -10.9687,-5.9063 -3.9376,-5.3437 -3.9376,-12.2344 0,-8.5781 5.3438,-15.8906 5.9062,-8.0156 14.0625,-8.0156 6.6094,0 11.1094,5.7031 4.5,5.6875 4.5,12.4375 z m 43.7343,14.0625 q 0,10.2657 -6.3281,17.8594 -6.75,7.875 -16.875,7.875 -15.75,0 -15.75,-18 0,-10.4063 5.9063,-17.7187 6.3281,-7.875 16.4531,-7.875 16.5937,0 16.5937,17.8593 z m 12.6563,45.4219 q 0,7.4531 -6.8281,14.125 -6.8125,6.6875 -14.4063,6.6875 -6.3281,0 -10.625,-4.2969 -4.2812,-4.2812 -4.2812,-10.6094 0,-8.4374 6.3281,-14.8281 6.3281,-6.4062 14.7656,-6.4062 6.6094,0 10.8282,4.3593 4.2187,4.3594 4.2187,10.9688 z" />
      <path
         d="m 134.77193,236.54614 q 3.41483,9.38219 -2.02354,18.92726 -5.42908,9.52498 -14.94347,12.98793 -5.02143,1.82765 -15.85777,4.12569 -10.836276,2.2979 -15.857805,4.12559 -2.642885,0.96193 -7.300925,3.78801 -4.663468,2.81145 -7.306355,3.77338 -7.532199,2.7415 -14.270576,-0.5592 -6.74368,-3.31526 -9.485211,-10.84755 -4.56915,-12.55364 5.231271,-23.45363 2.474359,-2.24741 6.870055,-7.43892 3.038387,-4.39814 3.396465,-12.45998 0.417788,-9.13107 1.930617,-12.37534 2.893596,-6.44058 12.395901,-10.34811 l 3.387615,-1.38263 q 4.312614,-1.71938 9.659641,0.22541 2.246922,0.82837 6.249149,5.65692 5.336298,6.43815 21.449678,13.29369 14.31088,6.01492 16.47526,11.96148 z"
         id="path27"
         inkscape:label="lm" />
      <path
         id="path17"
         inkscape:label="lt1"
         d="m 140.0548,184.04159 q 2.30864,6.34292 0.91724,14.03256 -1.71551,8.85517 -7.52977,10.97138 -6.2108,2.26055 -12.91324,-1.35248 -6.7078,-3.62777 -9.01644,-9.9707 -2.16433,-5.94647 0.79038,-13.22403 2.96401,-7.29765 8.77845,-9.41395 5.68214,-2.06811 11.29638,0.61086 5.60884,2.66413 7.677,8.34636 z m -37.14222,-19.40433 q 3.07818,8.45723 0.91773,15.67855 -2.44866,8.07443 -10.509432,11.00832 -6.342926,2.30863 -13.24063,-2.66336 -6.212746,-4.32335 -8.665679,-11.06273 -2.789586,-7.66432 -0.376973,-15.42639 2.748837,-8.48295 10.148917,-11.17636 6.87141,-2.50098 13.360574,2.17072 5.720173,4.20329 8.365493,11.47125 z m -40.568314,14.76565 q 2.645318,7.26795 1.5303,15.30587 -1.2947,9.59996 -7.901865,12.00477 -19.557447,7.11833 -27.781971,-15.47836 -7.45498,-20.48239 8.534548,-26.30211 8.589356,-3.12626 15.787305,1.4371 6.609203,4.17904 9.831683,13.03273 z m -16.290211,45.28713 q 2.597199,7.13575 0.676724,13.37177 -2.304755,6.82486 -9.176257,9.32588 -7.532199,2.7415 -14.874508,-2.21819 -6.441078,-4.53961 -9.326872,-12.46825 -2.260513,-6.21071 0.311425,-12.30149 2.566605,-6.10543 8.77741,-8.36598 6.342925,-2.30863 13.794477,1.94629 7.460878,4.23493 9.817601,10.70997 z" />
    </g>
  </g>
</svg>
