<svg xmlns="http://www.w3.org/2000/svg" viewBox="0 0 64 64" id="vote"><path d="M29.5 24.5c-.3 0-.5-.2-.5-.5V7c0-1.1-.9-2-2-2s-2 .9-2 2v17c0 .3-.2.5-.5.5s-.5-.2-.5-.5V7c0-1.7 1.3-3 3-3s3 1.3 3 3v17c0 .3-.2.5-.5.5z"></path><path d="M34.5 25.5c-.3 0-.5-.2-.5-.5v-8c0-1.1-.9-2-2-2s-2 .9-2 2v8c0 .3-.2.5-.5.5s-.5-.2-.5-.5v-8c0-1.7 1.3-3 3-3s3 1.3 3 3v8c0 .3-.2.5-.5.5z"></path><path d="M39.5 29.5c-.3 0-.5-.2-.5-.5V19c0-1.1-.9-2-2-2s-2 .9-2 2v8c0 .3-.2.5-.5.5s-.5-.2-.5-.5v-8c0-1.7 1.3-3 3-3s3 1.3 3 3v10c0 .3-.2.5-.5.5z"></path><path d="M39.5 29.5c-.3 0-.5-.2-.5-.5v-7c0-1.7 1.3-3 3-3s3 1.3 3 3v5c0 .3-.2.5-.5.5s-.5-.2-.5-.5v-5c0-1.1-.9-2-2-2s-2 .9-2 2v7c0 .3-.2.5-.5.5zM24.5 31.5c-.3 0-.5-.2-.5-.5V21c-2.2.3-4 2.2-4 4.5V31c0 .3-.2.5-.5.5s-.5-.2-.5-.5v-5.5c0-3 2.5-5.5 5.5-5.5.3 0 .5.2.5.5V31c0 .3-.2.5-.5.5z"></path><path d="M41.5 45h-17c-.3 0-.5-.2-.5-.5v-1.6c0-.8-.3-1.6-.8-2.2l-1.8-2.1c-1.6-1.9-2.4-4.3-2.4-6.7v-3.4c0-.3.2-.5.5-.5s.5.2.5.5v3.4c0 2.2.8 4.4 2.2 6.1l1.8 2.1c.7.8 1 1.8 1 2.9v1h16v-1.2c0-.9.1-1.8.4-2.7l1.8-5.3c.5-1.6.8-3.2.8-4.9v-4.4c0-.3.2-.5.5-.5s.5.2.5.5v4.4c0 1.8-.3 3.5-.8 5.2l-1.8 5.3c-.3.8-.4 1.6-.4 2.4v1.7c0 .3-.2.5-.5.5zM27 8.5c-.3 0-.5-.2-.5-.5V4.5c0-.3.2-.5.5-.5s.5.2.5.5V8c0 .2-.2.5-.5.5z"></path><path d="M43.5 53h-21c-.3 0-.5-.2-.5-.5v-8c0-.3.2-.5.5-.5h21c.3 0 .5.2.5.5v8c0 .3-.2.5-.5.5zM23 52h20v-7H23v7z"></path><path d="M43.5 60c-.3 0-.5-.2-.5-.5V53H23v6.5c0 .3-.2.5-.5.5s-.5-.2-.5-.5v-7c0-.3.2-.5.5-.5h21c.3 0 .5.2.5.5v7c0 .3-.2.5-.5.5z"></path></svg>